<svg width="100vw" height="65" viewBox="0 0 360 65" fill="none" xmlns="http://www.w3.org/2000/svg">
<path fill-rule="evenodd" clip-rule="evenodd" d="M0 28.7209L16.8333 30.7364C33.6667 32.7519 67.3333 36.7829 101 42.8295C134.667 48.876 168.333 56.938 202 48.876C235.667 40.814 269.333 16.6279 303 6.55039C336.667 -3.52713 370.333 0.503876 387.167 2.51938L404 4.53488V65H387.167C370.333 65 336.667 65 303 65C269.333 65 235.667 65 202 65C168.333 65 134.667 65 101 65C67.3333 65 33.6667 65 16.8333 65H0V28.7209Z" fill="#EAE8FF" fill-opacity="0.3"/>
</svg>
