<?xml version="1.0" standalone="no"?>
<!DOCTYPE svg PUBLIC "-//W3C//DTD SVG 20010904//EN"
 "http://www.w3.org/TR/2001/REC-SVG-20010904/DTD/svg10.dtd">
<svg version="1.0" xmlns="http://www.w3.org/2000/svg"
 width="700.000000pt" height="700.000000pt" viewBox="0 0 700.000000 700.000000"
 preserveAspectRatio="xMidYMid meet">
<metadata>
Created by potrace 1.14, written by Peter Selinger 2001-2017
</metadata>
<g transform="translate(0.000000,700.000000) scale(0.100000,-0.100000)"
fill="#000000" stroke="none">
<path d="M514 6960 c-218 -32 -388 -180 -460 -400 -15 -48 -18 -104 -22 -432
l-4 -378 3472 0 3471 0 -3 378 c-4 329 -7 384 -22 432 -63 193 -190 320 -386
386 -53 18 -156 19 -3025 20 -1634 1 -2993 -2 -3021 -6z m5246 -330 c0 -7
-763 -10 -2270 -10 -1507 0 -2270 3 -2270 10 0 7 763 10 2270 10 1507 0 2270
-3 2270 -10z m0 -385 c0 -13 -256 -15 -2267 -13 -1802 2 -2267 6 -2271 16 -3
9 455 12 2267 12 2013 0 2271 -2 2271 -15z"/>
<path d="M32 2858 l3 -2823 3465 0 3465 0 3 2823 2 2822 -3470 0 -3470 0 2
-2822z m3778 2666 c245 -37 448 -99 668 -204 272 -131 582 -362 598 -445 11
-59 -31 -125 -93 -146 -58 -19 -95 -4 -183 71 -44 39 -82 70 -85 70 -2 0 6
-16 20 -35 42 -62 58 -128 53 -219 -4 -71 -9 -91 -39 -147 -142 -258 -512
-243 -636 25 -24 52 -28 73 -28 146 1 70 5 95 26 140 44 94 118 163 211 196
46 16 142 21 198 10 35 -7 34 -7 -15 25 -121 78 -344 168 -525 212 -313 77
-679 77 -1015 1 -154 -34 -360 -106 -501 -173 l-119 -57 61 -2 c138 -4 252
-81 313 -212 21 -46 26 -70 25 -140 0 -72 -4 -95 -28 -146 -35 -77 -103 -145
-181 -181 -51 -23 -73 -28 -145 -28 -71 0 -94 5 -142 27 -70 32 -145 106 -178
173 -22 43 -25 64 -25 155 0 90 3 111 23 148 12 23 19 42 15 42 -14 -1 -166
-119 -267 -208 -64 -57 -106 -103 -121 -133 -32 -62 -68 -103 -131 -150 -38
-28 -75 -72 -134 -160 -65 -98 -180 -304 -180 -323 0 -2 17 0 37 6 55 15 170
5 225 -20 61 -27 144 -104 173 -162 50 -99 52 -229 3 -324 -31 -60 -105 -133
-167 -163 -49 -25 -68 -28 -151 -28 -83 0 -102 3 -150 27 -30 15 -71 43 -91
62 l-36 36 -7 -48 c-21 -151 -15 -486 11 -590 5 -22 5 -22 41 9 66 58 136 84
232 84 77 0 92 -3 152 -33 130 -64 201 -178 201 -324 0 -64 -5 -87 -31 -141
-36 -77 -91 -136 -164 -174 -48 -25 -63 -28 -155 -28 -57 0 -103 -1 -103 -3 0
-2 27 -56 60 -120 92 -181 187 -321 247 -364 52 -37 99 -97 122 -156 21 -50
217 -230 381 -348 l54 -39 -31 46 c-49 71 -66 136 -61 232 4 63 11 94 32 135
137 268 516 258 644 -16 22 -48 27 -71 27 -142 0 -71 -5 -94 -27 -142 -70
-150 -241 -243 -385 -210 -24 5 -43 8 -43 6 0 -9 243 -125 335 -159 295 -111
539 -155 855 -155 363 -1 670 70 978 224 203 102 330 191 522 366 52 48 103
89 113 93 10 4 17 17 17 30 0 69 65 179 138 232 62 46 132 68 212 68 167 0
304 -107 346 -272 62 -244 -161 -480 -408 -431 -73 14 -123 38 -173 81 l-35
31 -98 -84 c-380 -331 -812 -526 -1312 -594 -152 -21 -470 -23 -615 -5 -535
68 -1027 288 -1421 638 l-82 72 -49 -48 c-68 -66 -143 -94 -248 -95 -66 0 -90
4 -137 26 -257 119 -290 464 -59 620 25 17 48 33 50 34 2 2 -17 38 -42 81
-305 520 -428 1162 -331 1728 49 291 168 611 315 851 37 62 39 68 23 77 -45
25 -107 95 -133 151 -39 81 -48 155 -27 237 48 185 216 296 403 267 70 -11
163 -60 204 -105 l30 -35 67 54 c468 376 993 590 1582 642 89 8 397 -4 500
-20z m-247 -562 c26 -11 68 -41 95 -66 127 -119 148 -310 51 -455 -50 -75
-123 -125 -213 -148 -163 -40 -333 42 -404 195 -23 49 -27 70 -27 152 0 114
18 163 91 240 103 110 268 143 407 82z m2012 12 c109 -33 200 -132 231 -253
40 -160 -40 -327 -194 -403 -59 -30 -76 -33 -152 -33 -76 0 -93 3 -152 33
-145 71 -227 227 -199 378 22 115 82 201 179 252 94 50 179 58 287 26z m-3078
-1119 c116 -34 208 -133 240 -257 41 -159 -39 -329 -192 -404 -54 -26 -70 -29
-155 -29 -87 0 -100 3 -156 32 -76 40 -146 116 -173 189 -28 74 -28 184 0 258
22 60 90 143 145 177 79 49 196 62 291 34z m1075 -23 c77 -38 130 -92 167
-171 22 -48 26 -70 26 -146 0 -82 -3 -97 -33 -157 -38 -77 -92 -130 -171 -167
-47 -22 -70 -26 -146 -26 -76 0 -99 4 -146 26 -79 37 -133 90 -171 167 -30 61
-33 75 -33 162 0 84 3 101 28 147 72 138 184 205 332 201 68 -3 91 -8 147 -36z
m1020 4 c73 -35 150 -117 177 -191 14 -38 21 -79 21 -130 0 -98 -27 -169 -90
-238 -65 -71 -143 -109 -236 -115 -311 -20 -493 320 -307 573 92 126 288 171
435 101z m1021 1 c74 -37 134 -98 171 -177 26 -55 30 -76 30 -145 0 -106 -34
-183 -110 -255 -81 -76 -129 -95 -244 -95 -114 0 -162 18 -241 92 -196 183
-129 505 124 595 77 27 196 21 270 -15z m-3075 -1122 c75 -34 144 -103 178
-179 24 -51 28 -75 29 -146 0 -77 -3 -92 -33 -152 -53 -108 -148 -178 -262
-195 -156 -24 -305 52 -378 192 -24 45 -27 61 -27 155 0 89 3 112 23 151 88
180 292 255 470 174z m973 19 c214 -62 321 -303 221 -500 -107 -212 -382 -262
-557 -103 -131 120 -153 313 -54 463 82 123 246 182 390 140z m1085 -24 c70
-34 129 -94 165 -168 20 -40 24 -63 24 -147 0 -87 -3 -107 -26 -155 -50 -105
-154 -183 -266 -198 -164 -21 -304 52 -375 196 -29 59 -33 76 -33 152 0 72 4
94 28 145 87 187 301 265 483 175z m1009 6 c110 -50 183 -146 206 -268 10 -57
10 -76 -4 -134 -41 -163 -158 -263 -322 -272 -94 -5 -141 6 -215 50 -181 109
-220 372 -79 532 105 119 274 157 414 92z m-2136 -1096 c35 -6 82 -20 104 -31
61 -32 134 -105 164 -168 25 -49 28 -68 28 -151 0 -84 -3 -102 -28 -152 -71
-144 -238 -231 -386 -199 -117 25 -212 99 -260 201 -22 47 -26 69 -26 150 0
115 19 163 95 244 52 56 116 90 193 106 23 4 44 8 47 9 3 0 34 -4 69 -9z
m1026 -1 c119 -22 215 -93 264 -198 23 -49 26 -69 26 -156 0 -89 -3 -106 -27
-151 -54 -103 -127 -161 -238 -190 -163 -41 -335 43 -406 200 -24 51 -28 74
-28 146 -1 71 4 94 26 142 51 110 151 188 265 208 26 4 51 8 54 9 3 0 32 -4
64 -10z"/>
</g>
</svg>
