<?xml version="1.0" encoding="UTF-8"?><svg id="working_outline" xmlns="http://www.w3.org/2000/svg" viewBox="0 0 196.72 196.72"><defs><style>.cls-1{stroke-width:.75px;}.cls-1,.cls-2,.cls-3{stroke-miterlimit:10;}.cls-1,.cls-2,.cls-3,.cls-4{opacity:.5;}.cls-1,.cls-3{fill:none;stroke:#5cffc9;}.cls-5{fill:#fff;}.cls-2{fill:#241e4e;stroke:#5cffc7;}.cls-3{stroke-width:2px;}</style></defs><path class="cls-2" d="m16.56.5h163.6c8.86,0,16.06,7.2,16.06,16.06v179.66H.5V16.56C.5,7.7,7.7.5,16.56.5Z"/><line class="cls-1" x1="34.33" y1="21.21" x2="161.99" y2="21.21"/><line class="cls-1" x1="34.33" y1="10.41" x2="161.99" y2="10.41"/><g class="cls-4"><circle class="cls-5" cx="38.48" cy="66.37" r="10.06"/><circle class="cls-5" cx="67.22" cy="66.37" r="10.06"/><circle class="cls-5" cx="95.96" cy="66.37" r="10.06"/><circle class="cls-5" cx="124.71" cy="66.37" r="10.06"/><circle class="cls-5" cx="153.45" cy="66.37" r="10.06"/></g><g class="cls-4"><circle class="cls-5" cx="38.48" cy="97.93" r="10.06"/><circle class="cls-5" cx="67.22" cy="97.93" r="10.06"/><circle class="cls-5" cx="95.96" cy="97.93" r="10.06"/><circle class="cls-5" cx="124.71" cy="97.93" r="10.06"/><circle class="cls-5" cx="153.45" cy="97.93" r="10.06"/></g><g class="cls-4"><circle class="cls-5" cx="38.48" cy="129.5" r="10.06"/><circle class="cls-5" cx="67.22" cy="129.5" r="10.06"/><circle class="cls-5" cx="95.96" cy="129.5" r="10.06"/><circle class="cls-5" cx="124.71" cy="129.5" r="10.06"/><circle class="cls-5" cx="153.45" cy="129.5" r="10.06"/></g><g class="cls-4"><circle class="cls-5" cx="38.48" cy="161.06" r="10.06"/><circle class="cls-5" cx="67.22" cy="161.06" r="10.06"/><circle class="cls-5" cx="95.96" cy="161.06" r="10.06"/><circle class="cls-5" cx="124.71" cy="161.06" r="10.06"/><circle class="cls-5" cx="153.45" cy="161.06" r="10.06"/></g><line class="cls-3" x1=".5" y1="36.04" x2="196.22" y2="36.04"/></svg>