<?xml version="1.0" encoding="UTF-8"?><svg id="working_outline" xmlns="http://www.w3.org/2000/svg" viewBox="0 0 196.72 196.72"><defs><style>.cls-1{fill:#fff;}.cls-2{fill:#5cffc8;}.cls-3{stroke-width:.75px;}.cls-3,.cls-4,.cls-5{stroke-miterlimit:10;}.cls-3,.cls-5{fill:none;stroke:#5cffc9;}.cls-4{fill:#241e4e;stroke:#5cffc7;}.cls-5{stroke-width:2px;}</style></defs><path class="cls-4" d="m16.56.5h163.6c8.86,0,16.06,7.2,16.06,16.06v179.66H.5V16.56C.5,7.7,7.7.5,16.56.5Z"/><line class="cls-3" x1="34.33" y1="21.21" x2="161.99" y2="21.21"/><line class="cls-3" x1="34.33" y1="10.41" x2="161.99" y2="10.41"/><circle class="cls-1" cx="38.48" cy="66.37" r="10.06"/><circle class="cls-1" cx="67.22" cy="66.37" r="10.06"/><circle class="cls-1" cx="95.96" cy="66.37" r="10.06"/><circle class="cls-1" cx="124.71" cy="66.37" r="10.06"/><circle class="cls-1" cx="153.45" cy="66.37" r="10.06"/><circle class="cls-1" cx="38.48" cy="97.93" r="10.06"/><circle class="cls-1" cx="67.22" cy="97.93" r="10.06"/><circle class="cls-1" cx="95.96" cy="97.93" r="10.06"/><circle class="cls-1" cx="124.71" cy="97.93" r="10.06"/><circle class="cls-1" cx="153.45" cy="97.93" r="10.06"/><circle class="cls-1" cx="38.48" cy="129.5" r="10.06"/><circle class="cls-1" cx="67.22" cy="129.5" r="10.06"/><circle class="cls-1" cx="95.96" cy="129.5" r="10.06"/><circle class="cls-1" cx="124.71" cy="129.5" r="10.06"/><circle class="cls-1" cx="153.45" cy="129.5" r="10.06"/><circle class="cls-1" cx="38.48" cy="161.06" r="10.06"/><circle class="cls-1" cx="67.22" cy="161.06" r="10.06"/><circle class="cls-1" cx="95.96" cy="161.06" r="10.06"/><circle class="cls-1" cx="124.71" cy="161.06" r="10.06"/><circle class="cls-1" cx="153.45" cy="161.06" r="10.06"/><path class="cls-2" d="m141.62,161.28c-29.62,30.59-80.45,21.08-101.83-14.25-9.88-16.33-12.49-36.53-6.21-54.65s22.75-33.02,40.97-39.81c21.25-7.91,44.82-5.12,61.77,10.55,3.54,3.27,8.86-2.02,5.3-5.3-16.65-15.38-39.25-20.42-61.12-14.95s-41.36,19.91-50.96,39.78c-20.07,41.57,6.65,92.13,50.69,102.77,23.99,5.8,49.45-1.05,66.68-18.84,3.36-3.47-1.94-8.78-5.3-5.3h0Z"/><line class="cls-5" x1=".5" y1="36.04" x2="196.22" y2="36.04"/></svg>