<?xml version="1.0" encoding="UTF-8"?><svg id="working_outline" xmlns="http://www.w3.org/2000/svg" viewBox="0 0 196.22 196.09"><defs><style>.cls-1{fill:#fff;}.cls-2{fill:#c457af;}.cls-3{fill:#241e4e;}.cls-4{fill:none;stroke:#5cffc9;stroke-miterlimit:10;stroke-width:.75px;}</style></defs><path class="cls-3" d="m16.18,0h163.6c8.86,0,16.06,7.2,16.06,16.06v179.66H.13V16.06C.13,7.2,7.32,0,16.18,0Z"/><rect class="cls-4" x=".38" y="32.14" width="195.47" height="163.57"/><line class="cls-4" x1="33.96" y1="20.71" x2="161.62" y2="20.71"/><line class="cls-4" x1="33.96" y1="9.91" x2="161.62" y2="9.91"/><circle class="cls-2" cx="38.1" cy="65.87" r="10.06"/><circle class="cls-2" cx="66.85" cy="65.87" r="10.06"/><circle class="cls-2" cx="95.59" cy="65.87" r="10.06"/><circle class="cls-2" cx="124.34" cy="65.87" r="10.06"/><circle class="cls-2" cx="153.08" cy="65.87" r="10.06"/><circle class="cls-2" cx="38.1" cy="97.43" r="10.06"/><circle class="cls-2" cx="66.85" cy="97.43" r="10.06"/><circle class="cls-2" cx="95.59" cy="97.43" r="10.06"/><circle class="cls-2" cx="124.34" cy="97.43" r="10.06"/><circle class="cls-2" cx="153.08" cy="97.43" r="10.06"/><circle class="cls-2" cx="38.1" cy="129" r="10.06"/><circle class="cls-2" cx="66.85" cy="129" r="10.06"/><circle class="cls-2" cx="95.59" cy="129" r="10.06"/><circle class="cls-2" cx="124.34" cy="129" r="10.06"/><circle class="cls-2" cx="153.08" cy="129" r="10.06"/><circle class="cls-2" cx="38.1" cy="160.56" r="10.06"/><circle class="cls-2" cx="66.85" cy="160.56" r="10.06"/><circle class="cls-2" cx="95.59" cy="160.56" r="10.06"/><circle class="cls-2" cx="124.34" cy="160.56" r="10.06"/><circle class="cls-2" cx="153.08" cy="160.56" r="10.06"/><path class="cls-1" d="m141.25,160.78c-29.62,30.59-80.45,21.08-101.83-14.25-9.88-16.33-12.49-36.53-6.21-54.65s22.75-33.02,40.97-39.81c21.25-7.91,44.82-5.12,61.77,10.55,3.54,3.27,8.86-2.02,5.3-5.3-16.65-15.38-39.25-20.42-61.12-14.95s-41.36,19.91-50.96,39.78c-20.07,41.57,6.65,92.13,50.69,102.77,23.99,5.8,49.45-1.05,66.68-18.84,3.36-3.47-1.94-8.78-5.3-5.3h0Z"/></svg>